<?xml version="1.0" standalone="no"?><!DOCTYPE svg PUBLIC "-//W3C//DTD SVG 1.1//EN" "http://www.w3.org/Graphics/SVG/1.1/DTD/svg11.dtd"><svg t="1679647243318" class="icon" viewBox="0 0 1024 1024" version="1.1" xmlns="http://www.w3.org/2000/svg" p-id="3459" width="128" height="128" xmlns:xlink="http://www.w3.org/1999/xlink"><path d="M780.189272 975.235687h48.760701v48.764313h-48.760701zM975.235687 438.857143h48.764313v48.7607h-48.764313zM975.235687 390.096442h48.764313v48.760701h-48.764313zM975.235687 341.332129h48.764313v48.764313h-48.764313zM926.474986 536.378544h48.760701v48.764313h-48.760701zM926.474986 487.617843h48.760701v48.760701h-48.760701zM926.474986 438.857143h48.760701v48.7607h-48.760701z" p-id="3460"></path><path d="M926.474986 390.096442h48.760701v48.760701h-48.760701z" fill="#FFB62D" p-id="3461"></path><path d="M926.474986 341.332129h48.760701v48.764313h-48.760701zM877.714286 828.949973h48.7607v48.764313H877.714286zM877.714286 780.189272h48.7607v48.760701H877.714286zM877.714286 585.142857h48.7607v48.760701H877.714286zM877.714286 536.378544h48.7607v48.764313H877.714286z" p-id="3462"></path><path d="M877.714286 487.617843h48.7607v48.760701H877.714286zM877.714286 438.857143h48.7607v48.7607H877.714286zM877.714286 390.096442h48.7607v48.760701H877.714286zM877.714286 341.332129h48.7607v48.764313H877.714286z" fill="#FFB62D" p-id="3463"></path><path d="M877.714286 292.571429h48.7607v48.7607H877.714286zM828.949973 877.714286h48.764313v48.7607h-48.764313z" p-id="3464"></path><path d="M828.949973 828.949973h48.764313v48.764313h-48.764313zM828.949973 780.189272h48.764313v48.760701h-48.764313z" fill="#FFB62D" p-id="3465"></path><path d="M828.949973 731.428571h48.764313v48.760701h-48.764313zM828.949973 633.903558h48.764313v48.7607h-48.764313zM828.949973 585.142857h48.764313v48.760701h-48.764313z" p-id="3466"></path><path d="M828.949973 536.378544h48.764313v48.764313h-48.764313zM828.949973 487.617843h48.764313v48.760701h-48.764313z" fill="#FFB62D" p-id="3467"></path><path d="M828.949973 438.857143h48.764313v48.7607h-48.764313z" fill="#FECF48" p-id="3468"></path><path d="M828.949973 390.096442h48.764313v48.760701h-48.764313zM828.949973 341.332129h48.764313v48.764313h-48.764313z" fill="#FFB62D" p-id="3469"></path><path d="M828.949973 292.571429h48.764313v48.7607h-48.764313zM780.189272 926.474986h48.760701v48.760701h-48.760701z" p-id="3470"></path><path d="M780.189272 877.714286h48.760701v48.7607h-48.760701zM780.189272 828.949973h48.760701v48.764313h-48.760701zM780.189272 780.189272h48.760701v48.760701h-48.760701zM780.189272 731.428571h48.760701v48.760701h-48.760701z" fill="#FFB62D" p-id="3471"></path><path d="M780.189272 682.664258h48.760701v48.764313h-48.760701zM780.189272 633.903558h48.760701v48.7607h-48.760701z" p-id="3472"></path><path d="M780.189272 585.142857h48.760701v48.760701h-48.760701zM780.189272 536.378544h48.760701v48.764313h-48.760701zM780.189272 487.617843h48.760701v48.760701h-48.760701z" fill="#FFB62D" p-id="3473"></path><path d="M780.189272 438.857143h48.760701v48.7607h-48.760701z" fill="#FECF48" p-id="3474"></path><path d="M780.189272 390.096442h48.760701v48.760701h-48.760701zM780.189272 341.332129h48.760701v48.764313h-48.760701z" fill="#FFB62D" p-id="3475"></path><path d="M780.189272 292.571429h48.760701v48.7607h-48.760701zM731.428571 975.235687h48.760701v48.764313h-48.760701z" p-id="3476"></path><path d="M731.428571 926.474986h48.760701v48.760701h-48.760701zM731.428571 877.714286h48.760701v48.7607h-48.760701z" fill="#FFB62D" p-id="3477"></path><path d="M731.428571 828.949973h48.760701v48.764313h-48.760701z" fill="#FECF48" p-id="3478"></path><path d="M731.428571 780.189272h48.760701v48.760701h-48.760701zM731.428571 731.428571h48.760701v48.760701h-48.760701zM731.428571 682.664258h48.760701v48.764313h-48.760701zM731.428571 633.903558h48.760701v48.7607h-48.760701zM731.428571 585.142857h48.760701v48.760701h-48.760701zM731.428571 536.378544h48.760701v48.764313h-48.760701z" fill="#FFB62D" p-id="3479"></path><path d="M731.428571 487.617843h48.760701v48.760701h-48.760701zM731.428571 438.857143h48.760701v48.7607h-48.760701zM731.428571 390.096442h48.760701v48.760701h-48.760701z" fill="#FECF48" p-id="3480"></path><path d="M731.428571 341.332129h48.760701v48.764313h-48.760701zM731.428571 292.571429h48.760701v48.7607h-48.760701z" fill="#FFB62D" p-id="3481"></path><path d="M731.428571 243.810728h48.760701V292.571429h-48.760701zM682.664258 975.235687h48.764313v48.764313h-48.764313z" p-id="3482"></path><path d="M682.664258 926.474986h48.764313v48.760701h-48.764313zM682.664258 877.714286h48.764313v48.7607h-48.764313zM682.664258 828.949973h48.764313v48.764313h-48.764313z" fill="#FFB62D" p-id="3483"></path><path d="M682.664258 780.189272h48.764313v48.760701h-48.764313zM682.664258 731.428571h48.764313v48.760701h-48.764313zM682.664258 682.664258h48.764313v48.764313h-48.764313zM682.664258 633.903558h48.764313v48.7607h-48.764313z" fill="#FECF48" p-id="3484"></path><path d="M682.664258 585.142857h48.764313v48.760701h-48.764313z" fill="#FFB62D" p-id="3485"></path><path d="M682.664258 536.378544h48.764313v48.764313h-48.764313zM682.664258 487.617843h48.764313v48.760701h-48.764313zM682.664258 438.857143h48.764313v48.7607h-48.764313zM682.664258 390.096442h48.764313v48.760701h-48.764313z" fill="#FECF48" p-id="3486"></path><path d="M682.664258 341.332129h48.764313v48.764313h-48.764313zM682.664258 292.571429h48.764313v48.7607h-48.764313z" fill="#FFB62D" p-id="3487"></path><path d="M682.664258 243.810728h48.764313V292.571429h-48.764313zM633.903558 926.474986h48.7607v48.760701h-48.7607z" p-id="3488"></path><path d="M633.903558 877.714286h48.7607v48.7607h-48.7607zM633.903558 828.949973h48.7607v48.764313h-48.7607zM633.903558 780.189272h48.7607v48.760701h-48.7607z" fill="#FFB62D" p-id="3489"></path><path d="M633.903558 731.428571h48.7607v48.760701h-48.7607zM633.903558 682.664258h48.7607v48.764313h-48.7607zM633.903558 633.903558h48.7607v48.7607h-48.7607zM633.903558 585.142857h48.7607v48.760701h-48.7607zM633.903558 536.378544h48.7607v48.764313h-48.7607zM633.903558 487.617843h48.7607v48.760701h-48.7607zM633.903558 438.857143h48.7607v48.7607h-48.7607zM633.903558 390.096442h48.7607v48.760701h-48.7607zM633.903558 341.332129h48.7607v48.764313h-48.7607z" fill="#FECF48" p-id="3490"></path><path d="M633.903558 292.571429h48.7607v48.7607h-48.7607zM633.903558 243.810728h48.7607V292.571429h-48.7607z" fill="#FFB62D" p-id="3491"></path><path d="M633.903558 195.046415h48.7607v48.764313h-48.7607zM633.903558 146.285714h48.7607v48.760701h-48.7607zM585.142857 926.474986h48.760701v48.760701H585.142857z" p-id="3492"></path><path d="M585.142857 877.714286h48.760701v48.7607H585.142857zM585.142857 828.949973h48.760701v48.764313H585.142857zM585.142857 780.189272h48.760701v48.760701H585.142857z" fill="#FFB62D" p-id="3493"></path><path d="M585.142857 731.428571h48.760701v48.760701H585.142857zM585.142857 682.664258h48.760701v48.764313H585.142857zM585.142857 633.903558h48.760701v48.7607H585.142857zM585.142857 585.142857h48.760701v48.760701H585.142857zM585.142857 536.378544h48.760701v48.764313H585.142857zM585.142857 487.617843h48.760701v48.760701H585.142857zM585.142857 438.857143h48.760701v48.7607H585.142857z" fill="#FECF48" p-id="3494"></path><path d="M585.142857 390.096442h48.760701v48.760701H585.142857z" fill="#FFFFFF" p-id="3495"></path><path d="M585.142857 341.332129h48.760701v48.764313H585.142857zM585.142857 292.571429h48.760701v48.7607H585.142857z" fill="#FECF48" p-id="3496"></path><path d="M585.142857 243.810728h48.760701V292.571429H585.142857zM585.142857 195.046415h48.760701v48.764313H585.142857zM585.142857 146.285714h48.760701v48.760701H585.142857z" fill="#FFB62D" p-id="3497"></path><path d="M585.142857 97.525014h48.760701v48.7607H585.142857zM585.142857 48.760701h48.760701v48.764313H585.142857zM536.378544 926.474986h48.764313v48.760701h-48.764313zM536.378544 877.714286h48.764313v48.7607h-48.764313z" p-id="3498"></path><path d="M536.378544 828.949973h48.764313v48.764313h-48.764313zM536.378544 780.189272h48.764313v48.760701h-48.764313zM536.378544 731.428571h48.764313v48.760701h-48.764313z" fill="#FFB62D" p-id="3499"></path><path d="M536.378544 682.664258h48.764313v48.764313h-48.764313zM536.378544 633.903558h48.764313v48.7607h-48.764313zM536.378544 585.142857h48.764313v48.760701h-48.764313zM536.378544 536.378544h48.764313v48.764313h-48.764313zM536.378544 487.617843h48.764313v48.760701h-48.764313zM536.378544 438.857143h48.764313v48.7607h-48.764313zM536.378544 390.096442h48.764313v48.760701h-48.764313z" fill="#FECF48" p-id="3500"></path><path d="M536.378544 341.332129h48.764313v48.764313h-48.764313z" fill="#FFFFFF" p-id="3501"></path><path d="M536.378544 292.571429h48.764313v48.7607h-48.764313zM536.378544 243.810728h48.764313V292.571429h-48.764313z" fill="#FECF48" p-id="3502"></path><path d="M536.378544 195.046415h48.764313v48.764313h-48.764313zM536.378544 146.285714h48.764313v48.760701h-48.764313z" fill="#FFB62D" p-id="3503"></path><path d="M536.378544 97.525014h48.764313v48.7607h-48.764313z" fill="#FFB62D" p-id="3504"></path><path d="M536.378544 48.760701h48.764313v48.764313h-48.764313zM536.378544 0h48.764313v48.760701h-48.764313zM487.617843 877.714286h48.760701v48.7607h-48.760701z" p-id="3505"></path><path d="M487.617843 828.949973h48.760701v48.764313h-48.760701zM487.617843 780.189272h48.760701v48.760701h-48.760701zM487.617843 731.428571h48.760701v48.760701h-48.760701zM487.617843 682.664258h48.760701v48.764313h-48.760701z" fill="#FFB62D" p-id="3506"></path><path d="M487.617843 633.903558h48.760701v48.7607h-48.760701zM487.617843 585.142857h48.760701v48.760701h-48.760701zM487.617843 536.378544h48.760701v48.764313h-48.760701zM487.617843 487.617843h48.760701v48.760701h-48.760701zM487.617843 438.857143h48.760701v48.7607h-48.760701zM487.617843 390.096442h48.760701v48.760701h-48.760701zM487.617843 341.332129h48.760701v48.764313h-48.760701zM487.617843 292.571429h48.760701v48.7607h-48.760701zM487.617843 243.810728h48.760701V292.571429h-48.760701zM487.617843 195.046415h48.760701v48.764313h-48.760701z" fill="#FECF48" p-id="3507"></path><path d="M487.617843 146.285714h48.760701v48.760701h-48.760701z" fill="#FFB62D" p-id="3508"></path><path d="M487.617843 97.525014h48.760701v48.7607h-48.760701zM487.617843 48.760701h48.760701v48.764313h-48.760701z" fill="#FFB62D" p-id="3509"></path><path d="M487.617843 0h48.760701v48.760701h-48.760701zM438.857143 877.714286h48.7607v48.7607h-48.7607z" p-id="3510"></path><path d="M438.857143 828.949973h48.7607v48.764313h-48.7607zM438.857143 780.189272h48.7607v48.760701h-48.7607zM438.857143 731.428571h48.7607v48.760701h-48.7607z" fill="#FFB62D" p-id="3511"></path><path d="M438.857143 682.664258h48.7607v48.764313h-48.7607zM438.857143 633.903558h48.7607v48.7607h-48.7607zM438.857143 585.142857h48.7607v48.760701h-48.7607zM438.857143 536.378544h48.7607v48.764313h-48.7607zM438.857143 487.617843h48.7607v48.760701h-48.7607zM438.857143 438.857143h48.7607v48.7607h-48.7607zM438.857143 390.096442h48.7607v48.760701h-48.7607zM438.857143 341.332129h48.7607v48.764313h-48.7607zM438.857143 292.571429h48.7607v48.7607h-48.7607zM438.857143 243.810728h48.7607V292.571429h-48.7607z" fill="#FECF48" p-id="3512"></path><path d="M438.857143 195.046415h48.7607v48.764313h-48.7607zM438.857143 146.285714h48.7607v48.760701h-48.7607z" fill="#FFB62D" p-id="3513"></path><path d="M438.857143 97.525014h48.7607v48.7607h-48.7607z" fill="#FFB62D" p-id="3514"></path><path d="M438.857143 48.760701h48.7607v48.764313h-48.7607zM438.857143 0h48.7607v48.760701h-48.7607zM390.096442 926.474986h48.760701v48.760701h-48.760701zM390.096442 877.714286h48.760701v48.7607h-48.760701z" p-id="3515"></path><path d="M390.096442 828.949973h48.760701v48.764313h-48.760701zM390.096442 780.189272h48.760701v48.760701h-48.760701zM390.096442 731.428571h48.760701v48.760701h-48.760701z" fill="#FFB62D" p-id="3516"></path><path d="M390.096442 682.664258h48.760701v48.764313h-48.760701zM390.096442 633.903558h48.760701v48.7607h-48.760701zM390.096442 585.142857h48.760701v48.760701h-48.760701zM390.096442 536.378544h48.760701v48.764313h-48.760701zM390.096442 487.617843h48.760701v48.760701h-48.760701zM390.096442 438.857143h48.760701v48.7607h-48.760701zM390.096442 390.096442h48.760701v48.760701h-48.760701zM390.096442 341.332129h48.760701v48.764313h-48.760701zM390.096442 292.571429h48.760701v48.7607h-48.760701z" fill="#FECF48" p-id="3517"></path><path d="M390.096442 243.810728h48.760701V292.571429h-48.760701zM390.096442 195.046415h48.760701v48.764313h-48.760701zM390.096442 146.285714h48.760701v48.760701h-48.760701z" fill="#FFB62D" p-id="3518"></path><path d="M390.096442 97.525014h48.760701v48.7607h-48.760701zM390.096442 48.760701h48.760701v48.764313h-48.760701zM341.332129 926.474986h48.764313v48.760701H341.332129z" p-id="3519"></path><path d="M341.332129 877.714286h48.764313v48.7607H341.332129zM341.332129 828.949973h48.764313v48.764313H341.332129zM341.332129 780.189272h48.764313v48.760701H341.332129z" fill="#FFB62D" p-id="3520"></path><path d="M341.332129 731.428571h48.764313v48.760701H341.332129z" fill="#FECF48" p-id="3521"></path><path d="M341.332129 682.664258h48.764313v48.764313H341.332129z" fill="#FFFFFF" p-id="3522"></path><path d="M341.332129 633.903558h48.764313v48.7607H341.332129zM341.332129 585.142857h48.764313v48.760701H341.332129zM341.332129 536.378544h48.764313v48.764313H341.332129zM341.332129 487.617843h48.764313v48.760701H341.332129zM341.332129 438.857143h48.764313v48.7607H341.332129zM341.332129 390.096442h48.764313v48.760701H341.332129zM341.332129 341.332129h48.764313v48.764313H341.332129z" fill="#FECF48" p-id="3523"></path><path d="M341.332129 292.571429h48.764313v48.7607H341.332129zM341.332129 243.810728h48.764313V292.571429H341.332129z" fill="#FFB62D" p-id="3524"></path><path d="M341.332129 195.046415h48.764313v48.764313H341.332129zM341.332129 146.285714h48.764313v48.760701H341.332129zM292.571429 926.474986h48.7607v48.760701H292.571429z" p-id="3525"></path><path d="M292.571429 877.714286h48.7607v48.7607H292.571429zM292.571429 828.949973h48.7607v48.764313H292.571429z" fill="#FFB62D" p-id="3526"></path><path d="M292.571429 780.189272h48.7607v48.760701H292.571429z" fill="#FECF48" p-id="3527"></path><path d="M292.571429 731.428571h48.7607v48.760701H292.571429z" fill="#FFFFFF" p-id="3528"></path><path d="M292.571429 682.664258h48.7607v48.764313H292.571429zM292.571429 633.903558h48.7607v48.7607H292.571429z" fill="#FECF48" p-id="3529"></path><path d="M292.571429 585.142857h48.7607v48.760701H292.571429z" fill="#FFB62D" p-id="3530"></path><path d="M292.571429 536.378544h48.7607v48.764313H292.571429zM292.571429 487.617843h48.7607v48.760701H292.571429zM292.571429 438.857143h48.7607v48.7607H292.571429zM292.571429 390.096442h48.7607v48.760701H292.571429zM292.571429 341.332129h48.7607v48.764313H292.571429z" fill="#FECF48" p-id="3531"></path><path d="M292.571429 292.571429h48.7607v48.7607H292.571429z" fill="#FFB62D" p-id="3532"></path><path d="M292.571429 243.810728h48.7607V292.571429H292.571429zM243.810728 975.235687H292.571429v48.764313H243.810728z" p-id="3533"></path><path d="M243.810728 926.474986H292.571429v48.760701H243.810728zM243.810728 877.714286H292.571429v48.7607H243.810728z" fill="#FFB62D" p-id="3534"></path><path d="M243.810728 828.949973H292.571429v48.764313H243.810728z" fill="#FECF48" p-id="3535"></path><path d="M243.810728 780.189272H292.571429v48.760701H243.810728zM243.810728 731.428571H292.571429v48.760701H243.810728zM243.810728 682.664258H292.571429v48.764313H243.810728zM243.810728 633.903558H292.571429v48.7607H243.810728zM243.810728 585.142857H292.571429v48.760701H243.810728zM243.810728 536.378544H292.571429v48.764313H243.810728z" fill="#FFB62D" p-id="3536"></path><path d="M243.810728 487.617843H292.571429v48.760701H243.810728zM243.810728 438.857143H292.571429v48.7607H243.810728zM243.810728 390.096442H292.571429v48.760701H243.810728z" fill="#FECF48" p-id="3537"></path><path d="M243.810728 341.332129H292.571429v48.764313H243.810728zM243.810728 292.571429H292.571429v48.7607H243.810728z" fill="#FFB62D" p-id="3538"></path><path d="M243.810728 243.810728H292.571429V292.571429H243.810728zM195.046415 975.235687h48.764313v48.764313H195.046415zM195.046415 926.474986h48.764313v48.760701H195.046415z" p-id="3539"></path><path d="M195.046415 877.714286h48.764313v48.7607H195.046415zM195.046415 828.949973h48.764313v48.764313H195.046415zM195.046415 780.189272h48.764313v48.760701H195.046415zM195.046415 731.428571h48.764313v48.760701H195.046415zM195.046415 682.664258h48.764313v48.764313H195.046415z" fill="#FFB62D" p-id="3540"></path><path d="M195.046415 633.903558h48.764313v48.7607H195.046415zM195.046415 585.142857h48.764313v48.760701H195.046415z" p-id="3541"></path><path d="M195.046415 536.378544h48.764313v48.764313H195.046415zM195.046415 487.617843h48.764313v48.760701H195.046415z" fill="#FFB62D" p-id="3542"></path><path d="M195.046415 438.857143h48.764313v48.7607H195.046415z" fill="#FECF48" p-id="3543"></path><path d="M195.046415 390.096442h48.764313v48.760701H195.046415zM195.046415 341.332129h48.764313v48.764313H195.046415z" fill="#FFB62D" p-id="3544"></path><path d="M195.046415 292.571429h48.764313v48.7607H195.046415zM146.285714 877.714286h48.760701v48.7607H146.285714z" p-id="3545"></path><path d="M146.285714 828.949973h48.760701v48.764313H146.285714zM146.285714 780.189272h48.760701v48.760701H146.285714z" fill="#FFB62D" p-id="3546"></path><path d="M146.285714 731.428571h48.760701v48.760701H146.285714zM146.285714 682.664258h48.760701v48.764313H146.285714zM146.285714 585.142857h48.760701v48.760701H146.285714zM146.285714 536.378544h48.760701v48.764313H146.285714z" p-id="3547"></path><path d="M146.285714 487.617843h48.760701v48.760701H146.285714z" fill="#FFB62D" p-id="3548"></path><path d="M146.285714 438.857143h48.760701v48.7607H146.285714z" fill="#FECF48" p-id="3549"></path><path d="M146.285714 390.096442h48.760701v48.760701H146.285714zM146.285714 341.332129h48.760701v48.764313H146.285714z" fill="#FFB62D" p-id="3550"></path><path d="M146.285714 292.571429h48.760701v48.7607H146.285714zM97.525014 828.949973h48.7607v48.764313H97.525014zM97.525014 780.189272h48.7607v48.760701H97.525014zM97.525014 536.378544h48.7607v48.764313H97.525014z" p-id="3551"></path><path d="M97.525014 487.617843h48.7607v48.760701H97.525014zM97.525014 438.857143h48.7607v48.7607H97.525014zM97.525014 390.096442h48.7607v48.760701H97.525014zM97.525014 341.332129h48.7607v48.764313H97.525014z" fill="#FFB62D" p-id="3552"></path><path d="M97.525014 292.571429h48.7607v48.7607H97.525014zM48.760701 487.617843h48.764313v48.760701H48.760701zM48.760701 438.857143h48.764313v48.7607H48.760701z" p-id="3553"></path><path d="M48.760701 390.096442h48.764313v48.760701H48.760701zM48.760701 341.332129h48.764313v48.764313H48.760701z" fill="#FFB62D" p-id="3554"></path><path d="M48.760701 292.571429h48.764313v48.7607H48.760701zM0 438.857143h48.760701v48.7607H0zM0 390.096442h48.760701v48.760701H0zM0 341.332129h48.760701v48.764313H0z" p-id="3555"></path></svg>